<?xml version="1.0" encoding="utf-8"?>
<!-- Generator: Adobe Illustrator 23.0.3, SVG Export Plug-In . SVG Version: 6.00 Build 0)  -->
<svg version="1.1" id="Layer_1" xmlns="http://www.w3.org/2000/svg" xmlns:xlink="http://www.w3.org/1999/xlink" x="0px" y="0px"
	 viewBox="0 0 32 32" style="enable-background:new 0 0 32 32;" xml:space="preserve">
<g>
	<g>
		<g>
			<path d="M12,14c-3.8598633,0-7-3.140625-7-7s3.1401367-7,7-7s7,3.140625,7,7S15.8598633,14,12,14z M12,2
				C9.2431641,2,7,4.2431641,7,7s2.2431641,5,5,5s5-2.2431641,5-5S14.7568359,2,12,2z"/>
		</g>
		<g>
			<path d="M1,32c-0.5522461,0-1-0.4472656-1-1v-6.1152344c0-4.9306641,4.0117188-8.9423828,8.9423828-8.9423828h6.1152344
				c1.2290039,0,2.4199219,0.2451172,3.5400391,0.7285156c0.5073242,0.21875,0.7412109,0.8066406,0.5219727,1.3144531
				c-0.2182617,0.5068359-0.809082,0.7382813-1.3139648,0.5214844c-0.8686523-0.3740234-1.793457-0.5644531-2.7480469-0.5644531
				H8.9423828C5.1142578,17.9423828,2,21.0566406,2,24.8847656V31C2,31.5527344,1.5522461,32,1,32z"/>
		</g>
	</g>
	<g>
		<path d="M25,32c-3.8598633,0-7-3.140625-7-7s3.1401367-7,7-7s7,3.140625,7,7S28.8598633,32,25,32z M25,20
			c-2.7568359,0-5,2.2431641-5,5s2.2431641,5,5,5s5-2.2431641,5-5S27.7568359,20,25,20z"/>
	</g>
	<g>
		<path d="M25,19c-3.3137207,0-6,2.6862793-6,6s2.6862793,6,6,6s6-2.6862793,6-6S28.3137207,19,25,19z M27.2070313,25.7929688
			c0.390625,0.390625,0.390625,1.0234375,0,1.4140625C27.0117188,27.4023438,26.7558594,27.5,26.5,27.5
			s-0.5117188-0.0976563-0.7070313-0.2929688L25,26.4140625l-0.7929688,0.7929688C24.0117188,27.4023438,23.7558594,27.5,23.5,27.5
			s-0.5117188-0.0976563-0.7070313-0.2929688c-0.390625-0.390625-0.390625-1.0234375,0-1.4140625L23.5859375,25
			l-0.7929688-0.7929688c-0.390625-0.390625-0.390625-1.0234375,0-1.4140625s1.0234375-0.390625,1.4140625,0L25,23.5859375
			l0.7929688-0.7929688c0.390625-0.390625,1.0234375-0.390625,1.4140625,0s0.390625,1.0234375,0,1.4140625L26.4140625,25
			L27.2070313,25.7929688z"/>
	</g>
</g>
</svg>
